<svg xmlns="http://www.w3.org/2000/svg" viewBox="0 0 1318.47 40.84"><g id="图层_2" data-name="图层 2"><g id="图层_1-2" data-name="图层 1"><path d="M23.79,40.84,3.51,20.56A12,12,0,0,1,20.43,3.63L23.79,7l3.48-3.48A12,12,0,0,1,44.19,20.43Z" style="fill:#f4d9d9"/><path d="M86.75,9.71l1.82,5.61A8.38,8.38,0,0,0,94,20.7l5.61,1.82L94,24.34a8.38,8.38,0,0,0-5.39,5.38l-1.82,5.62-1.82-5.62a8.39,8.39,0,0,0-5.38-5.38l-5.61-1.82,5.61-1.82a8.39,8.39,0,0,0,5.38-5.38Z" style="fill:#e7f0fe"/><path d="M86.75,36.34a1,1,0,0,1-1-.69L84,30a7.41,7.41,0,0,0-4.74-4.74l-5.61-1.82a1,1,0,0,1,0-1.9l5.61-1.82A7.41,7.41,0,0,0,84,15L85.8,9.4a1,1,0,0,1,1-.69h0a1,1,0,0,1,1,.69L89.52,15a7.41,7.41,0,0,0,4.74,4.74l5.62,1.82a1,1,0,0,1,0,1.9l-5.62,1.82A7.41,7.41,0,0,0,89.52,30L87.7,35.65A1,1,0,0,1,86.75,36.34ZM77.18,22.52l2.68.87a9.38,9.38,0,0,1,6,6l.87,2.68.87-2.68a9.41,9.41,0,0,1,6-6l2.68-.87-2.68-.87a9.4,9.4,0,0,1-6-6L86.75,13l-.87,2.68a9.36,9.36,0,0,1-6,6Z" style="fill:#d1e3fd"/><path d="M149.59,40.84,129.31,20.56A12,12,0,0,1,146.24,3.63L149.59,7l3.48-3.48A12,12,0,0,1,170,20.43Z" style="fill:#f4d9d9"/><path d="M212.56,9.71l1.82,5.61a8.39,8.39,0,0,0,5.38,5.38l5.62,1.82-5.62,1.82a8.39,8.39,0,0,0-5.38,5.38l-1.82,5.62-1.82-5.62a8.39,8.39,0,0,0-5.38-5.38l-5.62-1.82,5.62-1.82a8.39,8.39,0,0,0,5.38-5.38Z" style="fill:#fcf5b0"/><path d="M212.56,36.34h0a1,1,0,0,1-.95-.69L209.79,30a7.41,7.41,0,0,0-4.74-4.74l-5.62-1.82a1,1,0,0,1,0-1.9l5.62-1.82A7.41,7.41,0,0,0,209.79,15l1.82-5.61a1,1,0,0,1,1.9,0L215.33,15a7.41,7.41,0,0,0,4.74,4.74l5.61,1.82a1,1,0,0,1,0,1.9l-5.61,1.82A7.41,7.41,0,0,0,215.33,30l-1.82,5.62A1,1,0,0,1,212.56,36.34ZM203,22.52l2.67.87a9.39,9.39,0,0,1,6,6l.87,2.68.87-2.68a9.38,9.38,0,0,1,6-6l2.68-.87-2.68-.87a9.36,9.36,0,0,1-6-6L212.56,13l-.87,2.68a9.38,9.38,0,0,1-6,6Z" style="fill:#fde03a"/><path d="M277.94,40.84,257.66,20.56A12,12,0,0,1,274.59,3.63L277.94,7l3.48-3.48a12,12,0,0,1,16.93,16.92Z" style="fill:#f4d9d9"/><path d="M340.91,9.71l1.82,5.61a8.39,8.39,0,0,0,5.38,5.38l5.61,1.82-5.61,1.82a8.39,8.39,0,0,0-5.38,5.38l-1.82,5.62-1.82-5.62a8.39,8.39,0,0,0-5.38-5.38l-5.62-1.82,5.62-1.82a8.39,8.39,0,0,0,5.38-5.38Z" style="fill:#e7f0fe"/><path d="M340.91,36.34a1,1,0,0,1-1-.69L338.14,30a7.41,7.41,0,0,0-4.74-4.74l-5.62-1.82a1,1,0,0,1,0-1.9l5.62-1.82A7.41,7.41,0,0,0,338.14,15L340,9.4a1,1,0,0,1,1-.69h0a1,1,0,0,1,.95.69L343.68,15a7.41,7.41,0,0,0,4.74,4.74L354,21.57a1,1,0,0,1,0,1.9l-5.61,1.82A7.41,7.41,0,0,0,343.68,30l-1.82,5.62A1,1,0,0,1,340.91,36.34Zm-9.58-13.82,2.68.87a9.39,9.39,0,0,1,6,6l.87,2.68.87-2.68a9.38,9.38,0,0,1,6-6l2.68-.87-2.68-.87a9.36,9.36,0,0,1-6-6L340.91,13,340,15.63a9.38,9.38,0,0,1-6,6Z" style="fill:#d1e3fd"/><path d="M403.75,40.84,383.47,20.56A12,12,0,0,1,400.39,3.63L403.75,7l3.48-3.48a12,12,0,0,1,16.92,16.92Z" style="fill:#f4d9d9"/><path d="M466.71,9.71l1.82,5.61a8.38,8.38,0,0,0,5.39,5.38l5.61,1.82-5.61,1.82a8.38,8.38,0,0,0-5.39,5.38l-1.82,5.62-1.82-5.62a8.37,8.37,0,0,0-5.38-5.38l-5.61-1.82,5.61-1.82a8.37,8.37,0,0,0,5.38-5.38Z" style="fill:#fcf5b0"/><path d="M466.71,36.34h0a1,1,0,0,1-.95-.69L463.94,30a7.39,7.39,0,0,0-4.74-4.74l-5.61-1.82a1,1,0,0,1,0-1.9l5.61-1.82A7.39,7.39,0,0,0,463.94,15l1.82-5.61a1,1,0,0,1,1.91,0L469.49,15a7.37,7.37,0,0,0,4.74,4.74l5.61,1.82a1,1,0,0,1,0,1.9l-5.61,1.82A7.37,7.37,0,0,0,469.49,30l-1.82,5.62A1,1,0,0,1,466.71,36.34Zm-9.57-13.82,2.68.87a9.41,9.41,0,0,1,6,6l.86,2.68.87-2.68a9.41,9.41,0,0,1,6-6l2.68-.87-2.68-.87a9.4,9.4,0,0,1-6-6L466.71,13l-.86,2.68a9.4,9.4,0,0,1-6,6Z" style="fill:#fde03a"/><path d="M532.1,40.84,511.82,20.56A12,12,0,1,1,528.74,3.63L532.1,7l3.48-3.48A12,12,0,0,1,552.5,20.43Z" style="fill:#f4d9d9"/><path d="M595.06,9.71l1.82,5.61a8.38,8.38,0,0,0,5.39,5.38l5.61,1.82-5.61,1.82a8.38,8.38,0,0,0-5.39,5.38l-1.82,5.62-1.82-5.62a8.37,8.37,0,0,0-5.38-5.38l-5.61-1.82,5.61-1.82a8.37,8.37,0,0,0,5.38-5.38Z" style="fill:#e7f0fe"/><path d="M595.06,36.34a1,1,0,0,1-.95-.69L592.29,30a7.39,7.39,0,0,0-4.74-4.74l-5.61-1.82a1,1,0,0,1,0-1.9l5.61-1.82A7.39,7.39,0,0,0,592.29,15l1.82-5.61a1,1,0,0,1,.95-.69h0a1,1,0,0,1,1,.69L597.83,15a7.41,7.41,0,0,0,4.74,4.74l5.62,1.82a1,1,0,0,1,0,1.9l-5.62,1.82A7.41,7.41,0,0,0,597.83,30L596,35.65A1,1,0,0,1,595.06,36.34Zm-9.57-13.82,2.68.87a9.38,9.38,0,0,1,6,6l.87,2.68.87-2.68a9.41,9.41,0,0,1,6-6l2.68-.87L602,21.65a9.4,9.4,0,0,1-6-6L595.06,13l-.87,2.68a9.36,9.36,0,0,1-6,6Z" style="fill:#d1e3fd"/><path d="M657.9,40.84,637.62,20.56A12,12,0,0,1,654.55,3.63L657.9,7l3.48-3.48a12,12,0,1,1,16.93,16.92Z" style="fill:#f4d9d9"/><path d="M720.87,9.71l1.82,5.61a8.39,8.39,0,0,0,5.38,5.38l5.62,1.82-5.62,1.82a8.39,8.39,0,0,0-5.38,5.38l-1.82,5.62-1.82-5.62a8.39,8.39,0,0,0-5.38-5.38l-5.62-1.82,5.62-1.82a8.39,8.39,0,0,0,5.38-5.38Z" style="fill:#fcf5b0"/><path d="M720.87,36.34h0a1,1,0,0,1-1-.69L718.1,30a7.41,7.41,0,0,0-4.74-4.74l-5.62-1.82a1,1,0,0,1,0-1.9l5.62-1.82A7.41,7.41,0,0,0,718.1,15l1.82-5.61a1,1,0,0,1,1.9,0L723.64,15a7.41,7.41,0,0,0,4.74,4.74L734,21.57a1,1,0,0,1,0,1.9l-5.61,1.82A7.41,7.41,0,0,0,723.64,30l-1.82,5.62A1,1,0,0,1,720.87,36.34ZM711.3,22.52l2.68.87a9.4,9.4,0,0,1,6,6l.87,2.68.87-2.68a9.38,9.38,0,0,1,6-6l2.68-.87-2.68-.87a9.36,9.36,0,0,1-6-6L720.87,13,720,15.63a9.39,9.39,0,0,1-6,6Z" style="fill:#fde03a"/><path d="M786.25,40.84,766,20.56A12,12,0,1,1,782.9,3.63L786.25,7l3.48-3.48a12,12,0,0,1,16.93,16.92Z" style="fill:#f4d9d9"/><path d="M849.22,9.71,851,15.32a8.39,8.39,0,0,0,5.38,5.38L862,22.52l-5.61,1.82A8.39,8.39,0,0,0,851,29.72l-1.82,5.62-1.82-5.62A8.39,8.39,0,0,0,842,24.34l-5.62-1.82L842,20.7a8.39,8.39,0,0,0,5.38-5.38Z" style="fill:#e7f0fe"/><path d="M849.22,36.34a1,1,0,0,1-1-.69L846.45,30a7.41,7.41,0,0,0-4.74-4.74l-5.62-1.82a1,1,0,0,1,0-1.9l5.62-1.82A7.41,7.41,0,0,0,846.45,15l1.82-5.61a1,1,0,0,1,1-.69h0a1,1,0,0,1,.95.69L852,15a7.41,7.41,0,0,0,4.74,4.74l5.61,1.82a1,1,0,0,1,0,1.9l-5.61,1.82A7.41,7.41,0,0,0,852,30l-1.82,5.62A1,1,0,0,1,849.22,36.34Zm-9.58-13.82,2.68.87a9.39,9.39,0,0,1,6,6l.87,2.68.87-2.68a9.38,9.38,0,0,1,6-6l2.68-.87-2.68-.87a9.36,9.36,0,0,1-6-6L849.22,13l-.87,2.68a9.38,9.38,0,0,1-6,6Z" style="fill:#d1e3fd"/><path d="M912.06,40.84,891.78,20.56A12,12,0,1,1,908.7,3.63L912.06,7l3.48-3.48a12,12,0,0,1,16.93,16.92Z" style="fill:#f4d9d9"/><path d="M975,9.71l1.82,5.61a8.38,8.38,0,0,0,5.39,5.38l5.61,1.82-5.61,1.82a8.38,8.38,0,0,0-5.39,5.38L975,35.34l-1.82-5.62a8.35,8.35,0,0,0-5.38-5.38l-5.61-1.82,5.61-1.82a8.35,8.35,0,0,0,5.38-5.38Z" style="fill:#fcf5b0"/><path d="M975,36.34h0a1,1,0,0,1-.95-.69L972.25,30a7.37,7.37,0,0,0-4.74-4.74l-5.61-1.82a1,1,0,0,1,0-1.9l5.61-1.82A7.37,7.37,0,0,0,972.25,15l1.82-5.61a1,1,0,0,1,1.91,0L977.8,15a7.37,7.37,0,0,0,4.74,4.74l5.61,1.82a1,1,0,0,1,0,1.9l-5.61,1.82A7.37,7.37,0,0,0,977.8,30L976,35.65A1,1,0,0,1,975,36.34Zm-9.57-13.82,2.68.87a9.41,9.41,0,0,1,6,6L975,32.1l.87-2.68a9.41,9.41,0,0,1,6-6l2.68-.87-2.68-.87a9.4,9.4,0,0,1-6-6L975,13l-.86,2.68a9.4,9.4,0,0,1-6,6Z" style="fill:#fde03a"/><path d="M1040.41,40.84l-20.28-20.28a12,12,0,1,1,16.92-16.93L1040.41,7l3.48-3.48a12,12,0,0,1,16.92,16.92Z" style="fill:#f4d9d9"/><path d="M1103.37,9.71l1.82,5.61a8.38,8.38,0,0,0,5.39,5.38l5.61,1.82-5.61,1.82a8.38,8.38,0,0,0-5.39,5.38l-1.82,5.62-1.82-5.62a8.37,8.37,0,0,0-5.38-5.38l-5.61-1.82,5.61-1.82a8.37,8.37,0,0,0,5.38-5.38Z" style="fill:#e7f0fe"/><path d="M1103.37,36.34a1,1,0,0,1-.95-.69L1100.6,30a7.39,7.39,0,0,0-4.74-4.74l-5.61-1.82a1,1,0,0,1,0-1.9l5.61-1.82A7.39,7.39,0,0,0,1100.6,15l1.82-5.61a1,1,0,0,1,.95-.69h0a1,1,0,0,1,1,.69l1.82,5.61a7.41,7.41,0,0,0,4.74,4.74l5.62,1.82a1,1,0,0,1,0,1.9l-5.62,1.82a7.41,7.41,0,0,0-4.74,4.74l-1.82,5.62A1,1,0,0,1,1103.37,36.34Zm-9.57-13.82,2.68.87a9.38,9.38,0,0,1,6,6l.87,2.68.87-2.68a9.41,9.41,0,0,1,6-6l2.68-.87-2.68-.87a9.4,9.4,0,0,1-6-6l-.87-2.68-.87,2.68a9.36,9.36,0,0,1-6,6Z" style="fill:#d1e3fd"/><path d="M1166.21,40.84l-20.28-20.28a12,12,0,0,1,16.93-16.93L1166.21,7l3.48-3.48a12,12,0,0,1,16.93,16.92Z" style="fill:#f4d9d9"/><path d="M1229.18,9.71l1.82,5.61a8.39,8.39,0,0,0,5.38,5.38l5.62,1.82-5.62,1.82a8.39,8.39,0,0,0-5.38,5.38l-1.82,5.62-1.82-5.62a8.39,8.39,0,0,0-5.38-5.38l-5.62-1.82L1222,20.7a8.39,8.39,0,0,0,5.38-5.38Z" style="fill:#fcf5b0"/><path d="M1229.18,36.34h0a1,1,0,0,1-1-.69L1226.41,30a7.41,7.41,0,0,0-4.74-4.74l-5.61-1.82a1,1,0,0,1,0-1.9l5.61-1.82a7.41,7.41,0,0,0,4.74-4.74l1.82-5.61a1,1,0,0,1,1.9,0L1232,15a7.41,7.41,0,0,0,4.74,4.74l5.61,1.82a1,1,0,0,1,0,1.9l-5.61,1.82A7.41,7.41,0,0,0,1232,30l-1.82,5.62A1,1,0,0,1,1229.18,36.34Zm-9.57-13.82,2.68.87a9.4,9.4,0,0,1,6,6l.87,2.68.87-2.68a9.38,9.38,0,0,1,6-6l2.68-.87-2.68-.87a9.36,9.36,0,0,1-6-6l-.87-2.68-.87,2.68a9.39,9.39,0,0,1-6,6Z" style="fill:#fde03a"/><path d="M1294.56,40.84l-20.28-20.28a12,12,0,1,1,16.93-16.93L1294.56,7,1298,3.51A12,12,0,1,1,1315,20.43Z" style="fill:#f4d9d9"/></g></g></svg>